# xmcd
#
# Track frame offsets: 
#        150
#        32215
#        65380
#        99760
#        113230
#        137852
#        159727
#        182437
#        202715
#        234307
#        261530
#        289180
#        316427
#
# Disc length: 4658 seconds
#
# Revision: 0
# Processed by: cddbd v1.5.2PL0 Copyright (c) Steve Scherf et al.
# Submitted via: ExactAudioCopy v0.99pb3
#
DISCID=b412300d
DTITLE=Double Exposure - The Best Of
DYEAR=1997
DGENRE=Disco
TTITLE0=Ten Percent
TTITLE1=Everyman
TTITLE2=My Love Is Free
TTITLE3=Handy Man
TTITLE4=Fallin' In Love With You
TTITLE5=Newsy Neighbours
TTITLE6=Perfect Lover
TTITLE7=There Is No More
TTITLE8=I Got The Hots For You
TTITLE9=Can We Be In Love
TTITLE10=I Wish I Could Make Love To You
TTITLE11=Separate Ways
TTITLE12=Jimmy Williams - All Of My Lovin' [12" Mix] (Bonus Track)
EXTD=
EXTT0=
EXTT1=
EXTT2=
EXTT3=
EXTT4=
EXTT5=
EXTT6=
EXTT7=
EXTT8=
EXTT9=
EXTT10=
EXTT11=
EXTT12=
PLAYORDER=
